M48
; DRILL file {KiCad 8.0.6} date 2026-08-05T21:55:56+0200
; FORMAT={-:-/ absolute / metric / decimal}
; #@! TF.CreationDate,2026-08-05T21:55:56+02:00
; #@! TF.GenerationSoftware,Kicad,Pcbnew,8.0.6
; #@! TF.FileFunction,Plated,1,2,PTH
FMAT,2
METRIC
; #@! TA.AperFunction,Plated,PTH,ViaDrill
T1C0.300
; #@! TA.AperFunction,Plated,PTH,ComponentDrill
T2C0.700
; #@! TA.AperFunction,Plated,PTH,ComponentDrill
T3C0.750
; #@! TA.AperFunction,Plated,PTH,ComponentDrill
T4C0.800
; #@! TA.AperFunction,Plated,PTH,ComponentDrill
T5C1.000
; #@! TA.AperFunction,Plated,PTH,ComponentDrill
T6C1.100
; #@! TA.AperFunction,Plated,PTH,ComponentDrill
T7C3.200
%
G90
G05
T1
X71.0Y-70.5
X71.0Y-76.0
X72.5Y-47.5
X72.5Y-70.5
X73.5Y-66.5
X74.0Y-50.0
X74.5Y-46.5
X79.0Y-96.5
X80.5Y-79.5
X81.0Y-93.5
X82.0Y-55.0
X83.0Y-51.5
X83.0Y-54.5
X83.5Y-45.0
X84.0Y-50.0
X84.5Y-41.5
X89.0Y-73.5
X89.5Y-61.0
X89.5Y-64.0
X91.0Y-43.5
X91.0Y-88.0
X91.0Y-90.0
X96.5Y-80.0
X101.5Y-69.0
X102.0Y-63.0
X103.0Y-41.5
X103.0Y-67.5
X104.0Y-58.5
X104.5Y-61.0
X104.62Y-56.38
X105.5Y-83.0
X109.0Y-61.1
X110.0Y-92.0
X111.5Y-73.5
X111.5Y-85.0
X111.5Y-99.0
X112.0Y-54.5
X112.5Y-57.0
X113.5Y-62.0
X113.5Y-63.0
X114.0Y-61.0
X114.0Y-71.0
X114.1Y-80.0
X115.0Y-79.1
X115.326Y-63.174
X116.0Y-54.0
X116.0Y-61.5
X116.0Y-86.5
X117.0Y-100.5
X117.9Y-97.5
X119.5Y-72.0
X119.5Y-102.5
X120.0Y-66.0
X120.5Y-62.5
X121.0Y-65.5
X121.901Y-72.099
X122.5Y-63.5
X122.5Y-75.5
X122.5Y-98.0
X122.915Y-88.915
X123.0Y-76.5
X123.0Y-88.0
X123.4Y-82.5
X123.5Y-85.0
X123.5Y-102.0
X124.0Y-70.0
X124.085Y-89.585
X124.5Y-67.0
X124.5Y-98.0
X124.6Y-69.449
X125.0Y-71.0
X125.0Y-82.0
X125.0Y-102.0
X125.5Y-100.5
X126.0Y-62.0
X126.5Y-80.0
X127.4Y-75.0
X127.5Y-51.0
X128.0Y-72.38
X128.0Y-83.0
X128.5Y-63.5
X129.0Y-62.0
X129.0Y-78.0
X130.5Y-86.0
X131.0Y-51.0
X131.449Y-79.6
X131.5Y-58.5
X131.5Y-77.0
X132.0Y-62.0
X132.0Y-79.0
X132.9Y-63.5
X133.0Y-91.5
X133.5Y-72.5
X133.5Y-90.5
X134.0Y-64.0
X134.0Y-65.0
X134.4Y-82.0
X134.5Y-78.0
X135.0Y-49.5
X135.0Y-61.0
X136.0Y-54.0
X136.5Y-61.0
X136.5Y-80.0
X137.5Y-78.0
X138.0Y-48.0
X139.0Y-48.5
X139.0Y-65.0
X139.5Y-64.0
X139.901Y-67.6
X140.0Y-81.5
X140.5Y-69.5
X140.85Y-67.5
X141.5Y-89.0
X142.0Y-65.0
X142.0Y-72.5
X142.5Y-81.0
X143.0Y-64.5
X143.5Y-77.0
X143.85Y-67.0
X144.0Y-70.5
X144.5Y-48.0
X144.5Y-58.5
X144.5Y-61.0
X145.5Y-58.5
X146.0Y-89.0
X146.5Y-95.0
X148.0Y-46.5
X148.0Y-65.5
X149.176Y-52.476
X149.205Y-50.695
X149.4Y-53.5
X150.0Y-52.5
X150.5Y-58.0
X151.0Y-48.1
X152.0Y-76.5
X152.5Y-43.0
X155.5Y-75.0
X155.5Y-77.0
X156.5Y-60.0
T2
X73.46Y-89.0
X76.015Y-45.17
X76.015Y-49.97
X76.96Y-58.5
X78.54Y-89.0
X80.315Y-45.17
X80.315Y-49.97
X82.04Y-58.5
X83.0Y-82.46
X83.0Y-87.54
X86.0Y-91.46
X86.0Y-96.54
X88.0Y-82.46
X88.0Y-87.54
X88.5Y-52.46
X88.5Y-57.54
X98.46Y-65.0
X103.54Y-65.0
X119.96Y-57.0
X125.04Y-57.0
X133.46Y-59.0
X137.0Y-104.82
X138.54Y-59.0
X142.08Y-104.82
X143.09Y-44.32
X143.96Y-100.0
X148.17Y-44.32
X149.04Y-100.0
X151.63Y-50.32
X151.63Y-55.4
X151.63Y-62.32
X151.63Y-68.32
X156.71Y-62.32
X156.71Y-68.32
T3
X147.0Y-69.92
X147.0Y-71.19
X147.0Y-73.73
X147.0Y-75.0
X147.01Y-72.46
X148.27Y-69.92
X148.27Y-71.19
X148.27Y-72.46
X148.27Y-73.73
X148.27Y-75.0
T4
X72.25Y-84.0
X79.75Y-84.0
X96.0Y-69.25
X96.0Y-76.75
X102.0Y-47.25
X102.0Y-54.75
X116.0Y-74.25
X116.0Y-81.75
X120.0Y-74.25
X120.0Y-81.75
X120.0Y-85.25
X120.0Y-92.75
X123.0Y-46.25
X123.0Y-53.75
X127.0Y-90.25
X127.0Y-97.75
X127.25Y-102.0
X133.25Y-87.0
X134.75Y-102.0
X140.75Y-87.0
X151.0Y-87.5
X151.0Y-95.0
X156.5Y-46.25
X156.5Y-53.75
X158.0Y-87.25
X158.0Y-94.75
T5
X67.0Y-66.5
X67.0Y-69.0
X67.0Y-71.5
X67.0Y-74.0
X67.0Y-76.5
X113.5Y-106.0
X116.0Y-106.0
X118.5Y-106.0
X121.0Y-106.0
X123.5Y-106.0
T6
X110.46Y-47.945
X113.0Y-47.945
X115.54Y-47.945
T7
X67.5Y-41.0
X67.5Y-104.5
X160.0Y-41.0
X160.0Y-104.5
M30
