%TF.GenerationSoftware,KiCad,Pcbnew,8.0.6*%
%TF.CreationDate,2026-08-05T21:55:55+02:00*%
%TF.ProjectId,Project-1,50726f6a-6563-4742-9d31-2e6b69636164,rev?*%
%TF.SameCoordinates,Original*%
%TF.FileFunction,Soldermask,Top*%
%TF.FilePolarity,Negative*%
%FSLAX46Y46*%
G04 Gerber Fmt 4.6, Leading zero omitted, Abs format (unit mm)*
G04 Created by KiCad (PCBNEW 8.0.6) date 2026-08-05 21:55:55*
%MOMM*%
%LPD*%
G01*
G04 APERTURE LIST*
G04 Aperture macros list*
%AMRoundRect*
0 Rectangle with rounded corners*
0 $1 Rounding radius*
0 $2 $3 $4 $5 $6 $7 $8 $9 X,Y pos of 4 corners*
0 Add a 4 corners polygon primitive as box body*
4,1,4,$2,$3,$4,$5,$6,$7,$8,$9,$2,$3,0*
0 Add four circle primitives for the rounded corners*
1,1,$1+$1,$2,$3*
1,1,$1+$1,$4,$5*
1,1,$1+$1,$6,$7*
1,1,$1+$1,$8,$9*
0 Add four rect primitives between the rounded corners*
20,1,$1+$1,$2,$3,$4,$5,0*
20,1,$1+$1,$4,$5,$6,$7,0*
20,1,$1+$1,$6,$7,$8,$9,0*
20,1,$1+$1,$8,$9,$2,$3,0*%
G04 Aperture macros list end*
%ADD10C,1.600000*%
%ADD11O,1.600000X1.600000*%
%ADD12C,1.400000*%
%ADD13O,1.400000X1.400000*%
%ADD14RoundRect,0.250000X-0.250000X-0.475000X0.250000X-0.475000X0.250000X0.475000X-0.250000X0.475000X0*%
%ADD15RoundRect,0.063000X-0.814000X-0.189000X0.814000X-0.189000X0.814000X0.189000X-0.814000X0.189000X0*%
%ADD16C,1.000000*%
%ADD17C,6.400000*%
%ADD18C,0.660000*%
%ADD19O,0.580000X1.000000*%
%ADD20R,0.850000X0.300000*%
%ADD21C,1.100000*%
%ADD22R,1.100000X0.600000*%
%ADD23C,1.500000*%
%ADD24RoundRect,0.058000X0.529000X0.174000X-0.529000X0.174000X-0.529000X-0.174000X0.529000X-0.174000X0*%
%ADD25RoundRect,0.058000X0.174000X0.529000X-0.174000X0.529000X-0.174000X-0.529000X0.174000X-0.529000X0*%
%ADD26RoundRect,0.102000X1.575000X1.575000X-1.575000X1.575000X-1.575000X-1.575000X1.575000X-1.575000X0*%
%ADD27RoundRect,0.250000X0.475000X-0.250000X0.475000X0.250000X-0.475000X0.250000X-0.475000X-0.250000X0*%
%ADD28RoundRect,0.201000X-0.886000X-0.201000X0.886000X-0.201000X0.886000X0.201000X-0.886000X0.201000X0*%
%ADD29RoundRect,0.060500X-0.821500X-0.181500X0.821500X-0.181500X0.821500X0.181500X-0.821500X0.181500X0*%
%ADD30RoundRect,0.060500X-0.181500X-0.821500X0.181500X-0.821500X0.181500X0.821500X-0.181500X0.821500X0*%
%ADD31RoundRect,0.250000X0.250000X0.475000X-0.250000X0.475000X-0.250000X-0.475000X0.250000X-0.475000X0*%
%ADD32RoundRect,0.250000X-0.475000X0.250000X-0.475000X-0.250000X0.475000X-0.250000X0.475000X0.250000X0*%
%ADD33R,1.905000X2.000000*%
%ADD34O,1.905000X2.000000*%
%ADD35R,1.600000X1.300000*%
%ADD36R,1.000000X0.900000*%
%ADD37RoundRect,0.102000X0.754000X-0.754000X0.754000X0.754000X-0.754000X0.754000X-0.754000X-0.754000X0*%
%ADD38C,1.712000*%
%ADD39C,1.164000*%
%ADD40RoundRect,0.150000X-0.650000X-0.150000X0.650000X-0.150000X0.650000X0.150000X-0.650000X0.150000X0*%
%ADD41RoundRect,0.102000X0.754000X0.754000X-0.754000X0.754000X-0.754000X-0.754000X0.754000X-0.754000X0*%
G04 APERTURE END LIST*
D10*
%TO.C,C14-10uF1*%
X123000000Y-53750000D03*
D11*
X123000000Y-46250000D03*
%TD*%
D10*
%TO.C,C14-1uF1*%
X140750000Y-87000000D03*
D11*
X133250000Y-87000000D03*
%TD*%
D12*
%TO.C,R5_1Kohms1*%
X78540000Y-89000000D03*
D13*
X73460000Y-89000000D03*
%TD*%
D10*
%TO.C,C10-10uF1*%
X158000000Y-94750000D03*
D11*
X158000000Y-87250000D03*
%TD*%
D10*
%TO.C,C15-10uF1*%
X102000000Y-47250000D03*
D11*
X102000000Y-54750000D03*
%TD*%
D10*
%TO.C,C13-22pF1*%
X120000000Y-74250000D03*
D11*
X120000000Y-81750000D03*
%TD*%
D12*
%TO.C,R30_PULL_10K1*%
X119960000Y-57000000D03*
D13*
X125040000Y-57000000D03*
%TD*%
D12*
%TO.C,R8-22ohms1*%
X151630000Y-68320000D03*
D13*
X156710000Y-68320000D03*
%TD*%
D10*
%TO.C,C11-0.01uF1*%
X151000000Y-95000000D03*
D11*
X151000000Y-87500000D03*
%TD*%
D14*
%TO.C,C3-100nF2*%
X89100000Y-76720000D03*
X91000000Y-76720000D03*
%TD*%
D15*
%TO.C,Signal-generator2*%
X106845000Y-62000000D03*
X106845000Y-62500000D03*
X106845000Y-63000000D03*
X106845000Y-63500000D03*
X106845000Y-64000000D03*
X111155000Y-64000000D03*
X111155000Y-63500000D03*
X111155000Y-63000000D03*
X111155000Y-62500000D03*
X111155000Y-62000000D03*
%TD*%
D12*
%TO.C,R200ohms1*%
X98460000Y-65000000D03*
D13*
X103540000Y-65000000D03*
%TD*%
D16*
%TO.C,TP10*%
X126000000Y-74000000D03*
%TD*%
D12*
%TO.C,R5.1K1*%
X76960000Y-58500000D03*
D13*
X82040000Y-58500000D03*
%TD*%
D12*
%TO.C,R25_PULL_10K1*%
X143090000Y-44320000D03*
D13*
X148170000Y-44320000D03*
%TD*%
D17*
%TO.C,REF\u002A\u002A*%
X160000000Y-41000000D03*
%TD*%
D16*
%TO.C,TP19*%
X117500000Y-64000000D03*
%TD*%
%TO.C,TP13*%
X143000000Y-61500000D03*
%TD*%
D18*
%TO.C,J2*%
X78165000Y-51320000D03*
D19*
X78165000Y-43820000D03*
D20*
X77330000Y-50320000D03*
X77330000Y-49820000D03*
X77330000Y-49320000D03*
X77330000Y-48820000D03*
X77330000Y-48320000D03*
X77330000Y-47820000D03*
X77330000Y-47320000D03*
X77330000Y-46820000D03*
X77330000Y-46320000D03*
X77330000Y-45820000D03*
X77330000Y-45320000D03*
X77330000Y-44820000D03*
X79000000Y-44820000D03*
X79000000Y-45320000D03*
X79000000Y-45820000D03*
X79000000Y-46320000D03*
X79000000Y-46820000D03*
X79000000Y-47320000D03*
X79000000Y-47820000D03*
X79000000Y-48320000D03*
X79000000Y-48820000D03*
X79000000Y-49320000D03*
X79000000Y-49820000D03*
X79000000Y-50320000D03*
D21*
X76015000Y-49970000D03*
X80315000Y-49970000D03*
X76015000Y-45170000D03*
X80315000Y-45170000D03*
%TD*%
D10*
%TO.C,C20-1uF1*%
X156500000Y-46250000D03*
D11*
X156500000Y-53750000D03*
%TD*%
D22*
%TO.C,Voltage-reference1*%
X129900000Y-81050000D03*
X129900000Y-82950000D03*
X132100000Y-82000000D03*
%TD*%
D23*
%TO.C,TP15*%
X95165000Y-60000000D03*
%TD*%
D12*
%TO.C,R3_PULL_10K1*%
X83000000Y-82460000D03*
D13*
X83000000Y-87540000D03*
%TD*%
D14*
%TO.C,C9-100nF1*%
X127050000Y-48000000D03*
X128950000Y-48000000D03*
%TD*%
D24*
%TO.C,USB-UART(CP2102)1*%
X147370000Y-54320000D03*
X147370000Y-53820000D03*
X147370000Y-53320000D03*
X147370000Y-52820000D03*
X147370000Y-52320000D03*
X147370000Y-51820000D03*
X147370000Y-51320000D03*
D25*
X146500000Y-50450000D03*
X146000000Y-50450000D03*
X145500000Y-50450000D03*
X145000000Y-50450000D03*
X144500000Y-50450000D03*
X144000000Y-50450000D03*
X143500000Y-50450000D03*
D24*
X142630000Y-51320000D03*
X142630000Y-51820000D03*
X142630000Y-52320000D03*
X142630000Y-52820000D03*
X142630000Y-53320000D03*
X142630000Y-53820000D03*
X142630000Y-54320000D03*
D25*
X143500000Y-55190000D03*
X144000000Y-55190000D03*
X144500000Y-55190000D03*
X145000000Y-55190000D03*
X145500000Y-55190000D03*
X146000000Y-55190000D03*
X146500000Y-55190000D03*
D26*
X145000000Y-52820000D03*
%TD*%
D27*
%TO.C,C31-100nF1*%
X126500000Y-66950000D03*
X126500000Y-65050000D03*
%TD*%
D28*
%TO.C,U9*%
X75525000Y-68730000D03*
X75525000Y-70000000D03*
X75525000Y-71270000D03*
X75525000Y-72540000D03*
X75525000Y-73810000D03*
X75525000Y-75080000D03*
X75525000Y-76350000D03*
X80475000Y-76350000D03*
X80475000Y-75080000D03*
X80475000Y-73810000D03*
X80475000Y-72540000D03*
X80475000Y-71270000D03*
X80475000Y-70000000D03*
X80475000Y-68730000D03*
%TD*%
D14*
%TO.C,C17-100nF1*%
X105050000Y-74000000D03*
X106950000Y-74000000D03*
%TD*%
%TO.C,C4-100nF1*%
X135050000Y-56000000D03*
X136950000Y-56000000D03*
%TD*%
D29*
%TO.C,U1*%
X129570000Y-68430000D03*
X129570000Y-68930000D03*
X129570000Y-69430000D03*
X129570000Y-69930000D03*
X129570000Y-70430000D03*
X129570000Y-70930000D03*
X129570000Y-71430000D03*
X129570000Y-71930000D03*
X129570000Y-72430000D03*
X129570000Y-72930000D03*
X129570000Y-73430000D03*
X129570000Y-73930000D03*
D30*
X131000000Y-75360000D03*
X131500000Y-75360000D03*
X132000000Y-75360000D03*
X132500000Y-75360000D03*
X133000000Y-75360000D03*
X133500000Y-75360000D03*
X134000000Y-75360000D03*
X134500000Y-75360000D03*
X135000000Y-75360000D03*
X135500000Y-75360000D03*
X136000000Y-75360000D03*
X136500000Y-75360000D03*
D29*
X137930000Y-73930000D03*
X137930000Y-73430000D03*
X137930000Y-72930000D03*
X137930000Y-72430000D03*
X137930000Y-71930000D03*
X137930000Y-71430000D03*
X137930000Y-70930000D03*
X137930000Y-70430000D03*
X137930000Y-69930000D03*
X137930000Y-69430000D03*
X137930000Y-68930000D03*
X137930000Y-68430000D03*
D30*
X136500000Y-67000000D03*
X136000000Y-67000000D03*
X135500000Y-67000000D03*
X135000000Y-67000000D03*
X134500000Y-67000000D03*
X134000000Y-67000000D03*
X133500000Y-67000000D03*
X133000000Y-67000000D03*
X132500000Y-67000000D03*
X132000000Y-67000000D03*
X131500000Y-67000000D03*
X131000000Y-67000000D03*
%TD*%
D16*
%TO.C,TP9*%
X123500000Y-74000000D03*
%TD*%
D23*
%TO.C,TP1*%
X88000000Y-44820000D03*
%TD*%
%TO.C,TP16*%
X144800000Y-85870000D03*
%TD*%
D14*
%TO.C,C16-100nF1*%
X107050000Y-57000000D03*
X108950000Y-57000000D03*
%TD*%
D23*
%TO.C,TP8*%
X75000000Y-96000000D03*
%TD*%
%TO.C,TP5*%
X79500000Y-64500000D03*
%TD*%
D17*
%TO.C,REF\u002A\u002A*%
X160000000Y-104500000D03*
%TD*%
D14*
%TO.C,C28-100nF1*%
X125050000Y-77000000D03*
X126950000Y-77000000D03*
%TD*%
D31*
%TO.C,C2-100nF1*%
X90950000Y-70720000D03*
X89050000Y-70720000D03*
%TD*%
D12*
%TO.C,R7_PULL_4.7K1*%
X151630000Y-55400000D03*
D13*
X151630000Y-50320000D03*
%TD*%
D23*
%TO.C,TP7*%
X108000000Y-105000000D03*
%TD*%
D17*
%TO.C,REF\u002A\u002A*%
X67500000Y-104500000D03*
%TD*%
D23*
%TO.C,TP4*%
X101000000Y-72000000D03*
%TD*%
%TO.C,TP11*%
X108000000Y-92000000D03*
%TD*%
D14*
%TO.C,C19-100nF1*%
X137050000Y-45000000D03*
X138950000Y-45000000D03*
%TD*%
D10*
%TO.C,C11-3.3nF1*%
X72250000Y-84000000D03*
D11*
X79750000Y-84000000D03*
%TD*%
D32*
%TO.C,C8-100nF1*%
X108000000Y-85000000D03*
X108000000Y-86900000D03*
%TD*%
D33*
%TO.C,U5*%
X110460000Y-47945000D03*
D34*
X113000000Y-47945000D03*
X115540000Y-47945000D03*
%TD*%
D17*
%TO.C,REF\u002A\u002A*%
X67500000Y-41000000D03*
%TD*%
D10*
%TO.C,C1-1nF1*%
X96000000Y-69250000D03*
D11*
X96000000Y-76750000D03*
%TD*%
D10*
%TO.C,C17*%
X127250000Y-102000000D03*
D11*
X134750000Y-102000000D03*
%TD*%
D23*
%TO.C,TP14*%
X138500000Y-100000000D03*
%TD*%
D12*
%TO.C,R15*%
X137000000Y-104820000D03*
D13*
X142080000Y-104820000D03*
%TD*%
D12*
%TO.C,R16*%
X149040000Y-100000000D03*
D13*
X143960000Y-100000000D03*
%TD*%
D35*
%TO.C,8MHz-Red-Frequency1*%
X120650000Y-68000000D03*
X117350000Y-68000000D03*
X117350000Y-70000000D03*
X120650000Y-70000000D03*
%TD*%
D12*
%TO.C,R5.1K2*%
X88500000Y-57540000D03*
D13*
X88500000Y-52460000D03*
%TD*%
D10*
%TO.C,C12-0.1uF1*%
X127000000Y-97750000D03*
D11*
X127000000Y-90250000D03*
%TD*%
D36*
%TO.C,25Mhz-Oscillator1*%
X105925000Y-69775000D03*
X108075000Y-69775000D03*
X108075000Y-68225000D03*
X105925000Y-68225000D03*
%TD*%
D12*
%TO.C,R2_PULL_10K1*%
X86000000Y-96540000D03*
D13*
X86000000Y-91460000D03*
%TD*%
D23*
%TO.C,TP17*%
X152000000Y-45000000D03*
%TD*%
D37*
%TO.C,Electrode-Connection2*%
X67000000Y-66500000D03*
D38*
X67000000Y-69000000D03*
X67000000Y-71500000D03*
X67000000Y-74000000D03*
X67000000Y-76500000D03*
%TD*%
D14*
%TO.C,C15-100nF1*%
X100000000Y-60000000D03*
X101900000Y-60000000D03*
%TD*%
D12*
%TO.C,R4_PULL_10K1*%
X88000000Y-82460000D03*
D13*
X88000000Y-87540000D03*
%TD*%
D23*
%TO.C,TP18*%
X122000000Y-96000000D03*
%TD*%
%TO.C,TP2*%
X133000000Y-46000000D03*
%TD*%
D10*
%TO.C,C14-22pF1*%
X116000000Y-81750000D03*
D11*
X116000000Y-74250000D03*
%TD*%
D14*
%TO.C,C18-100nF1*%
X126050000Y-86000000D03*
X127950000Y-86000000D03*
%TD*%
D39*
%TO.C,SWD-connector1*%
X148270000Y-75000000D03*
X147000000Y-75000000D03*
X148270000Y-73730000D03*
X147000000Y-73730000D03*
X148270000Y-72460000D03*
X147010000Y-72460000D03*
X148270000Y-71190000D03*
X147000000Y-71190000D03*
X148270000Y-69920000D03*
X147000000Y-69920000D03*
%TD*%
D16*
%TO.C,TP6*%
X121000000Y-100000000D03*
%TD*%
D27*
%TO.C,C5-100nF1*%
X158000000Y-76950000D03*
X158000000Y-75050000D03*
%TD*%
D32*
%TO.C,C6-100nF1*%
X111000000Y-75050000D03*
X111000000Y-76950000D03*
%TD*%
D16*
%TO.C,TP12*%
X143000000Y-68000000D03*
%TD*%
D14*
%TO.C,C17-100nF2*%
X114050000Y-97000000D03*
X115950000Y-97000000D03*
%TD*%
D40*
%TO.C,U2*%
X94400000Y-86095000D03*
X94400000Y-87365000D03*
X94400000Y-88635000D03*
X94400000Y-89905000D03*
X101600000Y-89905000D03*
X101600000Y-88635000D03*
X101600000Y-87365000D03*
X101600000Y-86095000D03*
%TD*%
D10*
%TO.C,C13-10uF1*%
X120000000Y-92750000D03*
D11*
X120000000Y-85250000D03*
%TD*%
D14*
%TO.C,C21-100nF1*%
X93100000Y-45000000D03*
X95000000Y-45000000D03*
%TD*%
%TO.C,C3-100nF1*%
X128050000Y-59000000D03*
X129950000Y-59000000D03*
%TD*%
D12*
%TO.C,R7-22ohms1*%
X151630000Y-62320000D03*
D13*
X156710000Y-62320000D03*
%TD*%
D16*
%TO.C,TP20*%
X105000000Y-95000000D03*
%TD*%
D41*
%TO.C,Electrode-Connection1*%
X113500000Y-106000000D03*
D38*
X116000000Y-106000000D03*
X118500000Y-106000000D03*
X121000000Y-106000000D03*
X123500000Y-106000000D03*
%TD*%
D12*
%TO.C,R7_PULL_10K1*%
X138540000Y-59000000D03*
D13*
X133460000Y-59000000D03*
%TD*%
M02*
