%TF.GenerationSoftware,KiCad,Pcbnew,8.0.6*%
%TF.CreationDate,2026-07-29T17:27:05+02:00*%
%TF.ProjectId,Project-1,50726f6a-6563-4742-9d31-2e6b69636164,rev?*%
%TF.SameCoordinates,Original*%
%TF.FileFunction,Soldermask,Bot*%
%TF.FilePolarity,Negative*%
%FSLAX46Y46*%
G04 Gerber Fmt 4.6, Leading zero omitted, Abs format (unit mm)*
G04 Created by KiCad (PCBNEW 8.0.6) date 2026-07-29 17:27:05*
%MOMM*%
%LPD*%
G01*
G04 APERTURE LIST*
G04 Aperture macros list*
%AMRoundRect*
0 Rectangle with rounded corners*
0 $1 Rounding radius*
0 $2 $3 $4 $5 $6 $7 $8 $9 X,Y pos of 4 corners*
0 Add a 4 corners polygon primitive as box body*
4,1,4,$2,$3,$4,$5,$6,$7,$8,$9,$2,$3,0*
0 Add four circle primitives for the rounded corners*
1,1,$1+$1,$2,$3*
1,1,$1+$1,$4,$5*
1,1,$1+$1,$6,$7*
1,1,$1+$1,$8,$9*
0 Add four rect primitives between the rounded corners*
20,1,$1+$1,$2,$3,$4,$5,0*
20,1,$1+$1,$4,$5,$6,$7,0*
20,1,$1+$1,$6,$7,$8,$9,0*
20,1,$1+$1,$8,$9,$2,$3,0*%
G04 Aperture macros list end*
%ADD10C,1.600000*%
%ADD11O,1.600000X1.600000*%
%ADD12C,1.400000*%
%ADD13O,1.400000X1.400000*%
%ADD14C,6.400000*%
%ADD15C,0.660000*%
%ADD16O,0.580000X1.000000*%
%ADD17C,1.100000*%
%ADD18R,1.905000X2.000000*%
%ADD19O,1.905000X2.000000*%
%ADD20RoundRect,0.102000X0.754000X-0.754000X0.754000X0.754000X-0.754000X0.754000X-0.754000X-0.754000X0*%
%ADD21C,1.712000*%
%ADD22C,1.164000*%
%ADD23RoundRect,0.102000X0.754000X0.754000X-0.754000X0.754000X-0.754000X-0.754000X0.754000X-0.754000X0*%
G04 APERTURE END LIST*
D10*
%TO.C,C14-10uF1*%
X123000000Y-53750000D03*
D11*
X123000000Y-46250000D03*
%TD*%
D10*
%TO.C,C14-1uF1*%
X140750000Y-87000000D03*
D11*
X133250000Y-87000000D03*
%TD*%
D12*
%TO.C,R5_1Kohms1*%
X78540000Y-89000000D03*
D13*
X73460000Y-89000000D03*
%TD*%
D10*
%TO.C,C10-10uF1*%
X158000000Y-94750000D03*
D11*
X158000000Y-87250000D03*
%TD*%
D14*
%TO.C,Hole3*%
X67500000Y-104500000D03*
%TD*%
D10*
%TO.C,C15-10uF1*%
X102000000Y-47250000D03*
D11*
X102000000Y-54750000D03*
%TD*%
D10*
%TO.C,C13-22pF1*%
X120000000Y-74250000D03*
D11*
X120000000Y-81750000D03*
%TD*%
D12*
%TO.C,R8-22ohms1*%
X151630000Y-68320000D03*
D13*
X156710000Y-68320000D03*
%TD*%
D10*
%TO.C,C11-0.01uF1*%
X151000000Y-95000000D03*
D11*
X151000000Y-87500000D03*
%TD*%
D12*
%TO.C,R200ohms1*%
X98460000Y-65000000D03*
D13*
X103540000Y-65000000D03*
%TD*%
D14*
%TO.C,Hole2*%
X160000000Y-104500000D03*
%TD*%
D12*
%TO.C,R5.1K1*%
X76960000Y-58500000D03*
D13*
X82040000Y-58500000D03*
%TD*%
D12*
%TO.C,R25_PULL_10K1*%
X143090000Y-44320000D03*
D13*
X148170000Y-44320000D03*
%TD*%
D15*
%TO.C,J2*%
X78165000Y-51320000D03*
D16*
X78165000Y-43820000D03*
D17*
X76015000Y-49970000D03*
X80315000Y-49970000D03*
X76015000Y-45170000D03*
X80315000Y-45170000D03*
%TD*%
D10*
%TO.C,C20-1uF1*%
X156500000Y-46250000D03*
D11*
X156500000Y-53750000D03*
%TD*%
D12*
%TO.C,R3_PULL_10K1*%
X83000000Y-82460000D03*
D13*
X83000000Y-87540000D03*
%TD*%
D14*
%TO.C,Hole1*%
X160000000Y-41000000D03*
%TD*%
D12*
%TO.C,R7_PULL_4.7K1*%
X151630000Y-55400000D03*
D13*
X151630000Y-50320000D03*
%TD*%
D10*
%TO.C,C11-3.3nF1*%
X72250000Y-84000000D03*
D11*
X79750000Y-84000000D03*
%TD*%
D18*
%TO.C,U5*%
X110460000Y-47945000D03*
D19*
X113000000Y-47945000D03*
X115540000Y-47945000D03*
%TD*%
D10*
%TO.C,C1-1nF1*%
X96000000Y-69250000D03*
D11*
X96000000Y-76750000D03*
%TD*%
D10*
%TO.C,C17*%
X127250000Y-102000000D03*
D11*
X134750000Y-102000000D03*
%TD*%
D12*
%TO.C,R15*%
X137000000Y-104820000D03*
D13*
X142080000Y-104820000D03*
%TD*%
D12*
%TO.C,R16*%
X149040000Y-100000000D03*
D13*
X143960000Y-100000000D03*
%TD*%
D12*
%TO.C,R5.1K2*%
X88500000Y-57540000D03*
D13*
X88500000Y-52460000D03*
%TD*%
D10*
%TO.C,C12-0.1uF1*%
X127000000Y-97750000D03*
D11*
X127000000Y-90250000D03*
%TD*%
D12*
%TO.C,R2_PULL_10K1*%
X86000000Y-96540000D03*
D13*
X86000000Y-91460000D03*
%TD*%
D20*
%TO.C,Electrode-Connection2*%
X67000000Y-66500000D03*
D21*
X67000000Y-69000000D03*
X67000000Y-71500000D03*
X67000000Y-74000000D03*
X67000000Y-76500000D03*
%TD*%
D12*
%TO.C,R4_PULL_10K1*%
X88000000Y-82460000D03*
D13*
X88000000Y-87540000D03*
%TD*%
D10*
%TO.C,C14-22pF1*%
X116000000Y-81750000D03*
D11*
X116000000Y-74250000D03*
%TD*%
D22*
%TO.C,SWD-connector1*%
X148270000Y-75000000D03*
X147000000Y-75000000D03*
X148270000Y-73730000D03*
X147000000Y-73730000D03*
X148270000Y-72460000D03*
X147010000Y-72460000D03*
X148270000Y-71190000D03*
X147000000Y-71190000D03*
X148270000Y-69920000D03*
X147000000Y-69920000D03*
%TD*%
D10*
%TO.C,C13-10uF1*%
X120000000Y-92750000D03*
D11*
X120000000Y-85250000D03*
%TD*%
D12*
%TO.C,R7-22ohms1*%
X151630000Y-62320000D03*
D13*
X156710000Y-62320000D03*
%TD*%
D14*
%TO.C,Hole4*%
X67500000Y-41000000D03*
%TD*%
D23*
%TO.C,Electrode-Connection1*%
X113500000Y-106000000D03*
D21*
X116000000Y-106000000D03*
X118500000Y-106000000D03*
X121000000Y-106000000D03*
X123500000Y-106000000D03*
%TD*%
D12*
%TO.C,R7_PULL_10K1*%
X138540000Y-59000000D03*
D13*
X133460000Y-59000000D03*
%TD*%
M02*
