%TF.GenerationSoftware,KiCad,Pcbnew,8.0.6*%
%TF.CreationDate,2026-08-02T04:01:10+02:00*%
%TF.ProjectId,Project-1,50726f6a-6563-4742-9d31-2e6b69636164,rev?*%
%TF.SameCoordinates,Original*%
%TF.FileFunction,Paste,Top*%
%TF.FilePolarity,Positive*%
%FSLAX46Y46*%
G04 Gerber Fmt 4.6, Leading zero omitted, Abs format (unit mm)*
G04 Created by KiCad (PCBNEW 8.0.6) date 2026-08-02 04:01:10*
%MOMM*%
%LPD*%
G01*
G04 APERTURE LIST*
G04 Aperture macros list*
%AMRoundRect*
0 Rectangle with rounded corners*
0 $1 Rounding radius*
0 $2 $3 $4 $5 $6 $7 $8 $9 X,Y pos of 4 corners*
0 Add a 4 corners polygon primitive as box body*
4,1,4,$2,$3,$4,$5,$6,$7,$8,$9,$2,$3,0*
0 Add four circle primitives for the rounded corners*
1,1,$1+$1,$2,$3*
1,1,$1+$1,$4,$5*
1,1,$1+$1,$6,$7*
1,1,$1+$1,$8,$9*
0 Add four rect primitives between the rounded corners*
20,1,$1+$1,$2,$3,$4,$5,0*
20,1,$1+$1,$4,$5,$6,$7,0*
20,1,$1+$1,$6,$7,$8,$9,0*
20,1,$1+$1,$8,$9,$2,$3,0*%
G04 Aperture macros list end*
%ADD10C,0.010000*%
%ADD11RoundRect,0.250000X-0.250000X-0.475000X0.250000X-0.475000X0.250000X0.475000X-0.250000X0.475000X0*%
%ADD12RoundRect,0.037500X-0.737500X-0.112500X0.737500X-0.112500X0.737500X0.112500X-0.737500X0.112500X0*%
%ADD13R,0.850000X0.300000*%
%ADD14C,1.100000*%
%ADD15R,1.100000X0.600000*%
%ADD16RoundRect,0.032500X0.452500X0.097500X-0.452500X0.097500X-0.452500X-0.097500X0.452500X-0.097500X0*%
%ADD17RoundRect,0.032500X0.097500X0.452500X-0.097500X0.452500X-0.097500X-0.452500X0.097500X-0.452500X0*%
%ADD18RoundRect,0.250000X0.475000X-0.250000X0.475000X0.250000X-0.475000X0.250000X-0.475000X-0.250000X0*%
%ADD19RoundRect,0.150000X-0.835000X-0.150000X0.835000X-0.150000X0.835000X0.150000X-0.835000X0.150000X0*%
%ADD20RoundRect,0.035000X-0.745000X-0.105000X0.745000X-0.105000X0.745000X0.105000X-0.745000X0.105000X0*%
%ADD21RoundRect,0.035000X-0.105000X-0.745000X0.105000X-0.745000X0.105000X0.745000X-0.105000X0.745000X0*%
%ADD22RoundRect,0.250000X0.250000X0.475000X-0.250000X0.475000X-0.250000X-0.475000X0.250000X-0.475000X0*%
%ADD23RoundRect,0.250000X-0.475000X0.250000X-0.475000X-0.250000X0.475000X-0.250000X0.475000X0.250000X0*%
%ADD24R,1.600000X1.300000*%
%ADD25R,1.000000X0.900000*%
%ADD26RoundRect,0.150000X-0.650000X-0.150000X0.650000X-0.150000X0.650000X0.150000X-0.650000X0.150000X0*%
G04 APERTURE END LIST*
D10*
%TO.C,USB-UART(CP2102)1*%
X146000000Y-53820000D02*
X144000000Y-53820000D01*
X144000000Y-51820000D01*
X146000000Y-51820000D01*
X146000000Y-53820000D01*
G36*
X146000000Y-53820000D02*
G01*
X144000000Y-53820000D01*
X144000000Y-51820000D01*
X146000000Y-51820000D01*
X146000000Y-53820000D01*
G37*
%TD*%
D11*
%TO.C,C3-100nF2*%
X89100000Y-76720000D03*
X91000000Y-76720000D03*
%TD*%
D12*
%TO.C,Signal-generator2*%
X106845000Y-62000000D03*
X106845000Y-62500000D03*
X106845000Y-63000000D03*
X106845000Y-63500000D03*
X106845000Y-64000000D03*
X111155000Y-64000000D03*
X111155000Y-63500000D03*
X111155000Y-63000000D03*
X111155000Y-62500000D03*
X111155000Y-62000000D03*
%TD*%
D13*
%TO.C,J2*%
X77330000Y-50320000D03*
X77330000Y-49820000D03*
X77330000Y-49320000D03*
X77330000Y-48820000D03*
X77330000Y-48320000D03*
X77330000Y-47820000D03*
X77330000Y-47320000D03*
X77330000Y-46820000D03*
X77330000Y-46320000D03*
X77330000Y-45820000D03*
X77330000Y-45320000D03*
X77330000Y-44820000D03*
X79000000Y-44820000D03*
X79000000Y-45320000D03*
X79000000Y-45820000D03*
X79000000Y-46320000D03*
X79000000Y-46820000D03*
X79000000Y-47320000D03*
X79000000Y-47820000D03*
X79000000Y-48320000D03*
X79000000Y-48820000D03*
X79000000Y-49320000D03*
X79000000Y-49820000D03*
X79000000Y-50320000D03*
D14*
X76015000Y-49970000D03*
X80315000Y-49970000D03*
X76015000Y-45170000D03*
X80315000Y-45170000D03*
%TD*%
D15*
%TO.C,Voltage-reference1*%
X129900000Y-81050000D03*
X129900000Y-82950000D03*
X132100000Y-82000000D03*
%TD*%
D11*
%TO.C,C9-100nF1*%
X127050000Y-48000000D03*
X128950000Y-48000000D03*
%TD*%
D16*
%TO.C,USB-UART(CP2102)1*%
X147370000Y-54320000D03*
X147370000Y-53820000D03*
X147370000Y-53320000D03*
X147370000Y-52820000D03*
X147370000Y-52320000D03*
X147370000Y-51820000D03*
X147370000Y-51320000D03*
D17*
X146500000Y-50450000D03*
X146000000Y-50450000D03*
X145500000Y-50450000D03*
X145000000Y-50450000D03*
X144500000Y-50450000D03*
X144000000Y-50450000D03*
X143500000Y-50450000D03*
D16*
X142630000Y-51320000D03*
X142630000Y-51820000D03*
X142630000Y-52320000D03*
X142630000Y-52820000D03*
X142630000Y-53320000D03*
X142630000Y-53820000D03*
X142630000Y-54320000D03*
D17*
X143500000Y-55190000D03*
X144000000Y-55190000D03*
X144500000Y-55190000D03*
X145000000Y-55190000D03*
X145500000Y-55190000D03*
X146000000Y-55190000D03*
X146500000Y-55190000D03*
%TD*%
D18*
%TO.C,C31-100nF1*%
X126500000Y-66950000D03*
X126500000Y-65050000D03*
%TD*%
D19*
%TO.C,U9*%
X75525000Y-68730000D03*
X75525000Y-70000000D03*
X75525000Y-71270000D03*
X75525000Y-72540000D03*
X75525000Y-73810000D03*
X75525000Y-75080000D03*
X75525000Y-76350000D03*
X80475000Y-76350000D03*
X80475000Y-75080000D03*
X80475000Y-73810000D03*
X80475000Y-72540000D03*
X80475000Y-71270000D03*
X80475000Y-70000000D03*
X80475000Y-68730000D03*
%TD*%
D11*
%TO.C,C17-100nF1*%
X105050000Y-74000000D03*
X106950000Y-74000000D03*
%TD*%
%TO.C,C4-100nF1*%
X135050000Y-56000000D03*
X136950000Y-56000000D03*
%TD*%
D20*
%TO.C,U1*%
X129570000Y-68430000D03*
X129570000Y-68930000D03*
X129570000Y-69430000D03*
X129570000Y-69930000D03*
X129570000Y-70430000D03*
X129570000Y-70930000D03*
X129570000Y-71430000D03*
X129570000Y-71930000D03*
X129570000Y-72430000D03*
X129570000Y-72930000D03*
X129570000Y-73430000D03*
X129570000Y-73930000D03*
D21*
X131000000Y-75360000D03*
X131500000Y-75360000D03*
X132000000Y-75360000D03*
X132500000Y-75360000D03*
X133000000Y-75360000D03*
X133500000Y-75360000D03*
X134000000Y-75360000D03*
X134500000Y-75360000D03*
X135000000Y-75360000D03*
X135500000Y-75360000D03*
X136000000Y-75360000D03*
X136500000Y-75360000D03*
D20*
X137930000Y-73930000D03*
X137930000Y-73430000D03*
X137930000Y-72930000D03*
X137930000Y-72430000D03*
X137930000Y-71930000D03*
X137930000Y-71430000D03*
X137930000Y-70930000D03*
X137930000Y-70430000D03*
X137930000Y-69930000D03*
X137930000Y-69430000D03*
X137930000Y-68930000D03*
X137930000Y-68430000D03*
D21*
X136500000Y-67000000D03*
X136000000Y-67000000D03*
X135500000Y-67000000D03*
X135000000Y-67000000D03*
X134500000Y-67000000D03*
X134000000Y-67000000D03*
X133500000Y-67000000D03*
X133000000Y-67000000D03*
X132500000Y-67000000D03*
X132000000Y-67000000D03*
X131500000Y-67000000D03*
X131000000Y-67000000D03*
%TD*%
D11*
%TO.C,C16-100nF1*%
X107050000Y-57000000D03*
X108950000Y-57000000D03*
%TD*%
%TO.C,C28-100nF1*%
X125050000Y-77000000D03*
X126950000Y-77000000D03*
%TD*%
D22*
%TO.C,C2-100nF1*%
X90950000Y-70720000D03*
X89050000Y-70720000D03*
%TD*%
D11*
%TO.C,C19-100nF1*%
X137050000Y-45000000D03*
X138950000Y-45000000D03*
%TD*%
D23*
%TO.C,C8-100nF1*%
X108000000Y-85000000D03*
X108000000Y-86900000D03*
%TD*%
D24*
%TO.C,8MHz-Red-Frequency1*%
X120650000Y-68000000D03*
X117350000Y-68000000D03*
X117350000Y-70000000D03*
X120650000Y-70000000D03*
%TD*%
D25*
%TO.C,25Mhz-Oscillator1*%
X105925000Y-69775000D03*
X108075000Y-69775000D03*
X108075000Y-68225000D03*
X105925000Y-68225000D03*
%TD*%
D11*
%TO.C,C15-100nF1*%
X100000000Y-60000000D03*
X101900000Y-60000000D03*
%TD*%
%TO.C,C18-100nF1*%
X126050000Y-86000000D03*
X127950000Y-86000000D03*
%TD*%
D18*
%TO.C,C5-100nF1*%
X158000000Y-76950000D03*
X158000000Y-75050000D03*
%TD*%
D23*
%TO.C,C6-100nF1*%
X111000000Y-75050000D03*
X111000000Y-76950000D03*
%TD*%
D11*
%TO.C,C17-100nF2*%
X114050000Y-97000000D03*
X115950000Y-97000000D03*
%TD*%
D26*
%TO.C,U2*%
X94400000Y-86095000D03*
X94400000Y-87365000D03*
X94400000Y-88635000D03*
X94400000Y-89905000D03*
X101600000Y-89905000D03*
X101600000Y-88635000D03*
X101600000Y-87365000D03*
X101600000Y-86095000D03*
%TD*%
D11*
%TO.C,C21-100nF1*%
X93100000Y-45000000D03*
X95000000Y-45000000D03*
%TD*%
%TO.C,C3-100nF1*%
X128050000Y-59000000D03*
X129950000Y-59000000D03*
%TD*%
M02*
