M48
; DRILL file {KiCad 8.0.6} date 2026-08-06T21:57:44+0200
; FORMAT={-:-/ absolute / inch / decimal}
; #@! TF.CreationDate,2026-08-06T21:57:44+02:00
; #@! TF.GenerationSoftware,Kicad,Pcbnew,8.0.6
; #@! TF.FileFunction,Plated,1,2,PTH
FMAT,2
INCH
; #@! TA.AperFunction,Plated,PTH,ViaDrill
T1C0.0118
; #@! TA.AperFunction,Plated,PTH,ComponentDrill
T2C0.0276
; #@! TA.AperFunction,Plated,PTH,ComponentDrill
T3C0.0295
; #@! TA.AperFunction,Plated,PTH,ComponentDrill
T4C0.0315
; #@! TA.AperFunction,Plated,PTH,ComponentDrill
T5C0.0394
; #@! TA.AperFunction,Plated,PTH,ComponentDrill
T6C0.0433
; #@! TA.AperFunction,Plated,PTH,ComponentDrill
T7C0.1260
%
G90
G05
T1
X2.7953Y-2.7756
X2.7953Y-2.9921
X2.8543Y-1.8701
X2.8543Y-2.7756
X2.8937Y-2.6181
X2.9134Y-1.9685
X2.9331Y-1.8307
X3.1102Y-3.7992
X3.1693Y-3.1299
X3.189Y-3.6811
X3.2283Y-2.1654
X3.2677Y-2.0276
X3.2677Y-2.1457
X3.2874Y-1.7717
X3.3071Y-1.9685
X3.3268Y-1.6339
X3.5039Y-2.8937
X3.5236Y-2.4016
X3.5236Y-2.5197
X3.5827Y-1.7126
X3.5827Y-3.4646
X3.5827Y-3.5433
X3.622Y-3.2283
X3.7992Y-3.1496
X3.8386Y-3.189
X3.9961Y-2.7165
X4.0157Y-2.4803
X4.0551Y-1.6339
X4.0551Y-2.6575
X4.0945Y-2.3031
X4.1142Y-2.4016
X4.1189Y-2.2197
X4.1535Y-3.2677
X4.2913Y-2.4055
X4.3307Y-3.622
X4.3898Y-2.8937
X4.3898Y-3.3465
X4.3898Y-3.8976
X4.4094Y-2.1457
X4.4291Y-2.2441
X4.4685Y-2.4409
X4.4685Y-2.4803
X4.4882Y-2.4016
X4.4882Y-2.7953
X4.4921Y-3.1496
X4.5276Y-3.1142
X4.5404Y-2.4872
X4.5669Y-2.126
X4.5669Y-2.4213
X4.5669Y-3.4055
X4.6063Y-3.9567
X4.6417Y-3.8386
X4.7047Y-2.8346
X4.7047Y-4.0354
X4.7244Y-2.5984
X4.7441Y-2.4606
X4.7638Y-2.5787
X4.7992Y-2.8386
X4.8228Y-2.5
X4.8228Y-2.9724
X4.8228Y-3.8583
X4.8392Y-3.5006
X4.8425Y-3.0118
X4.8425Y-3.4646
X4.8583Y-3.248
X4.8622Y-3.3465
X4.8622Y-4.0157
X4.8819Y-2.7559
X4.8852Y-3.527
X4.9016Y-2.6378
X4.9016Y-3.8583
X4.9055Y-2.7342
X4.9213Y-2.7953
X4.9213Y-3.2283
X4.9213Y-4.0157
X4.9409Y-3.9567
X4.9606Y-2.4409
X4.9803Y-3.1496
X5.0157Y-2.9528
X5.0197Y-2.0079
X5.0394Y-2.8496
X5.0394Y-3.2677
X5.0591Y-2.5
X5.0787Y-2.4409
X5.0787Y-3.0709
X5.1378Y-3.3858
X5.1575Y-2.0079
X5.1751Y-3.1339
X5.1772Y-2.3031
X5.1772Y-3.0315
X5.1969Y-2.4409
X5.1969Y-3.1102
X5.2323Y-2.5
X5.2362Y-3.6024
X5.2559Y-2.8543
X5.2559Y-3.563
X5.2756Y-2.5197
X5.2756Y-2.5591
X5.2913Y-3.2283
X5.2953Y-3.0709
X5.315Y-1.9488
X5.315Y-2.4016
X5.3543Y-2.126
X5.374Y-2.4016
X5.374Y-3.1496
X5.4134Y-3.0709
X5.4331Y-1.8898
X5.4724Y-1.9094
X5.4724Y-2.5591
X5.4921Y-2.5197
X5.5079Y-2.6614
X5.5118Y-3.2087
X5.5315Y-2.7362
X5.5453Y-2.6575
X5.5709Y-3.5039
X5.5906Y-2.5591
X5.5906Y-2.8543
X5.6102Y-3.189
X5.6299Y-2.5394
X5.6496Y-3.0315
X5.6634Y-2.6378
X5.6693Y-2.7756
X5.689Y-1.8898
X5.689Y-2.3031
X5.689Y-2.4016
X5.7283Y-2.3031
X5.748Y-3.5039
X5.7677Y-3.7402
X5.8268Y-1.8307
X5.8268Y-2.5787
X5.8731Y-2.066
X5.8742Y-1.9959
X5.8819Y-2.1063
X5.9055Y-2.0669
X5.9252Y-2.2835
X5.9449Y-1.8937
X5.9843Y-3.0118
X6.0039Y-1.6929
X6.122Y-2.9528
X6.122Y-3.0315
X6.1614Y-2.3622
T2
X2.8921Y-3.5039
X2.9927Y-1.7783
X2.9927Y-1.9673
X3.0299Y-2.3031
X3.0921Y-3.5039
X3.162Y-1.7783
X3.162Y-1.9673
X3.2299Y-2.3031
X3.2677Y-3.2465
X3.2677Y-3.4465
X3.3858Y-3.6008
X3.3858Y-3.8008
X3.4646Y-3.2465
X3.4646Y-3.4465
X3.4843Y-2.0654
X3.4843Y-2.2654
X3.8764Y-2.5591
X4.0764Y-2.5591
X4.7228Y-2.2441
X4.9228Y-2.2441
X5.2543Y-2.3228
X5.3937Y-4.1268
X5.4543Y-2.3228
X5.5937Y-4.1268
X5.6335Y-1.7449
X5.6677Y-3.937
X5.8335Y-1.7449
X5.8677Y-3.937
X5.9697Y-1.9811
X5.9697Y-2.1811
X5.9697Y-2.4535
X5.9697Y-2.6898
X6.1697Y-2.4535
X6.1697Y-2.6898
T3
X5.7874Y-2.7528
X5.7874Y-2.8028
X5.7874Y-2.9028
X5.7874Y-2.9528
X5.7878Y-2.8528
X5.8374Y-2.7528
X5.8374Y-2.8028
X5.8374Y-2.8528
X5.8374Y-2.9028
X5.8374Y-2.9528
T4
X2.8445Y-3.3071
X3.1398Y-3.3071
X3.7795Y-2.7264
X3.7795Y-3.0217
X4.0157Y-1.8602
X4.0157Y-2.1555
X4.5669Y-2.9232
X4.5669Y-3.2185
X4.7244Y-2.9232
X4.7244Y-3.2185
X4.7244Y-3.3563
X4.7244Y-3.6516
X4.8425Y-1.8209
X4.8425Y-2.1161
X5.0Y-3.5531
X5.0Y-3.8484
X5.0098Y-4.0157
X5.2461Y-3.4252
X5.3051Y-4.0157
X5.5413Y-3.4252
X5.9449Y-3.4449
X5.9449Y-3.7402
X6.1614Y-1.8209
X6.1614Y-2.1161
X6.2205Y-3.435
X6.2205Y-3.7303
T5
X2.6378Y-2.6181
X2.6378Y-2.7165
X2.6378Y-2.815
X2.6378Y-2.9134
X2.6378Y-3.0118
X4.4685Y-4.1732
X4.5669Y-4.1732
X4.6654Y-4.1732
X4.7638Y-4.1732
X4.8622Y-4.1732
T6
X4.3488Y-1.8876
X4.4488Y-1.8876
X4.5488Y-1.8876
T7
X2.6575Y-1.6142
X2.6575Y-4.1142
X6.2992Y-1.6142
X6.2992Y-4.1142
M30
