%TF.GenerationSoftware,KiCad,Pcbnew,8.0.6*%
%TF.CreationDate,2026-08-02T04:01:10+02:00*%
%TF.ProjectId,Project-1,50726f6a-6563-4742-9d31-2e6b69636164,rev?*%
%TF.SameCoordinates,Original*%
%TF.FileFunction,Legend,Bot*%
%TF.FilePolarity,Positive*%
%FSLAX46Y46*%
G04 Gerber Fmt 4.6, Leading zero omitted, Abs format (unit mm)*
G04 Created by KiCad (PCBNEW 8.0.6) date 2026-08-02 04:01:10*
%MOMM*%
%LPD*%
G01*
G04 APERTURE LIST*
%ADD10C,0.150000*%
%ADD11C,0.127000*%
%ADD12C,0.200000*%
%ADD13C,0.120000*%
G04 APERTURE END LIST*
D10*
X78336904Y-66559819D02*
X78336904Y-67369342D01*
X78336904Y-67369342D02*
X78289285Y-67464580D01*
X78289285Y-67464580D02*
X78241666Y-67512200D01*
X78241666Y-67512200D02*
X78146428Y-67559819D01*
X78146428Y-67559819D02*
X77955952Y-67559819D01*
X77955952Y-67559819D02*
X77860714Y-67512200D01*
X77860714Y-67512200D02*
X77813095Y-67464580D01*
X77813095Y-67464580D02*
X77765476Y-67369342D01*
X77765476Y-67369342D02*
X77765476Y-66559819D01*
X77241666Y-67559819D02*
X77051190Y-67559819D01*
X77051190Y-67559819D02*
X76955952Y-67512200D01*
X76955952Y-67512200D02*
X76908333Y-67464580D01*
X76908333Y-67464580D02*
X76813095Y-67321723D01*
X76813095Y-67321723D02*
X76765476Y-67131247D01*
X76765476Y-67131247D02*
X76765476Y-66750295D01*
X76765476Y-66750295D02*
X76813095Y-66655057D01*
X76813095Y-66655057D02*
X76860714Y-66607438D01*
X76860714Y-66607438D02*
X76955952Y-66559819D01*
X76955952Y-66559819D02*
X77146428Y-66559819D01*
X77146428Y-66559819D02*
X77241666Y-66607438D01*
X77241666Y-66607438D02*
X77289285Y-66655057D01*
X77289285Y-66655057D02*
X77336904Y-66750295D01*
X77336904Y-66750295D02*
X77336904Y-66988390D01*
X77336904Y-66988390D02*
X77289285Y-67083628D01*
X77289285Y-67083628D02*
X77241666Y-67131247D01*
X77241666Y-67131247D02*
X77146428Y-67178866D01*
X77146428Y-67178866D02*
X76955952Y-67178866D01*
X76955952Y-67178866D02*
X76860714Y-67131247D01*
X76860714Y-67131247D02*
X76813095Y-67083628D01*
X76813095Y-67083628D02*
X76765476Y-66988390D01*
D11*
%TO.C,Electrode-Connection1*%
X111050000Y-102600000D02*
X125950000Y-102600000D01*
X111050000Y-108350000D02*
X111050000Y-102600000D01*
X125950000Y-102600000D02*
X125950000Y-108350000D01*
X125950000Y-108350000D02*
X111050000Y-108350000D01*
D12*
X110350000Y-106000000D02*
G75*
G02*
X110150000Y-106000000I-100000J0D01*
G01*
X110150000Y-106000000D02*
G75*
G02*
X110350000Y-106000000I100000J0D01*
G01*
D13*
%TO.C,R7_PULL_10K1*%
X134080000Y-58080000D02*
X137920000Y-58080000D01*
X134080000Y-59920000D02*
X137920000Y-59920000D01*
%TD*%
M02*
